Coordinates
version=1
nRows=17
nColumns=36
inDegrees=yes

Units are S.I. units (second, meters, Newtons, ...)
If the header above contains a line with 'inDegrees', this indicates whether rotational values are in degrees (yes) or radians (no).

endheader
time	pelvis_tilt	pelvis_list	pelvis_rotation	pelvis_tx	pelvis_ty	pelvis_tz	hip_flexion_r	hip_adduction_r	hip_rotation_r	knee_angle_r	knee_angle_r_beta	ankle_angle_r	subtalar_angle_r	mtp_angle_r	hip_flexion_l	hip_adduction_l	hip_rotation_l	knee_angle_l	knee_angle_l_beta	ankle_angle_l	subtalar_angle_l	mtp_angle_l	lumbar_extension	lumbar_bending	lumbar_rotation	arm_flex_r	arm_add_r	arm_rot_r	elbow_flex_r	pro_sup_r	arm_flex_l	arm_add_l	arm_rot_l	elbow_flex_l	pro_sup_l
      0.00000000	      5.46549120	      0.83027641	      7.29818349	      0.67868905	      0.99829115	      0.00176195	     10.68207904	      4.07096458	      1.85127742	     34.18372411	      0.59661854	     10.29561174	    -15.70265212	     -6.13263217	     30.70545997	      0.30760387	      7.07478105	     65.86773873	      1.14960891	      3.74038740	    -10.32535424	     -6.13263217	    -20.99192748	      0.81754986	      9.20559484	     33.50966314	    -11.27089298	     13.93518132	    117.39328754	     85.60892769	    -34.90529228	     -9.43326374	     -0.98032917	     32.90170709	     54.27586902
      0.01666670	      4.12177363	      0.46687206	      5.98841778	      0.68377435	      0.99307984	      0.00479255	     13.21517351	      4.86811251	      3.44625675	     37.06827911	      0.64696352	     15.64596963	    -15.41642777	     -6.24105831	     32.86608642	      0.12172894	      6.29841550	     66.29836991	      1.15712484	      5.49464325	     -9.13174280	     -6.24105831	    -18.92157550	      1.43144893	     11.35633239	     35.06331249	    -10.37733966	     12.23721268	    119.49849506	     85.25558557	    -39.25159312	    -11.50204713	      5.44995490	     35.58141906	     55.10021644
      0.03333330	      2.57466583	      0.61185283	      5.21499518	      0.69223534	      0.98808834	      0.00359227	     14.77021676	      4.36868528	      2.82196801	     38.09272903	      0.66484354	     17.82469356	    -14.33711356	     -6.34838391	     35.11301406	      0.10975970	      5.56300092	     67.14435901	      1.17189014	      6.67071539	     -9.88934298	     -6.34838391	    -16.23955514	      0.91684198	     13.86810149	     36.33005588	    -10.52880803	     11.74497978	    120.28921539	     85.71116424	    -44.09928962	    -15.37990398	     11.00146957	     36.31533250	     55.32539842
      0.05000000	      2.21874134	      0.96498974	      5.10822642	      0.69609807	      0.98951414	      0.00214884	     15.04573982	      3.80708110	      2.56729743	     38.45168918	      0.67110858	     20.08189758	    -11.75460149	     -6.38838549	     36.00847956	      0.61223775	      5.44767350	     68.52593140	      1.19600313	      8.25684678	     -9.87706380	     -6.38838549	    -15.62514648	      0.52027697	     15.15599072	     37.95300986	    -10.70833822	     12.25951415	    120.47874849	     85.82333552	    -47.66013057	    -17.70018151	     11.79130008	     38.09331758	     55.48889233
      0.06666670	      1.70544490	      1.17365415	      4.74813118	      0.70105388	      0.98373370	      0.00032399	     15.48625894	      3.22164203	      2.19177298	     38.90720398	      0.67905881	     21.25058307	     -9.91745244	     -6.41646158	     37.17807259	      0.93416717	      5.16480795	     69.62665705	      1.21521441	      9.22795235	     -9.01971867	     -6.41646158	    -14.79466230	      0.56193853	     15.84215603	     40.10580468	    -10.70408510	     12.81252329	    120.18820826	     85.91966276	    -50.97777348	    -18.88093662	     11.81815888	     39.95899748	     55.66628503
      0.08333330	      1.22861685	      1.52164417	      4.41180976	      0.70044272	      0.98586222	     -0.00061635	     15.77956175	      2.55705555	      2.10601388	     38.64458810	      0.67447530	     22.03661018	     -7.90968153	     -6.44136730	     38.38675794	      1.39640972	      4.91410140	     70.13685970	      1.22411913	      9.35163440	     -7.34472184	     -6.44136730	    -14.48629653	      0.44083235	     16.17245088	     42.09447709	    -10.95705385	     12.93074732	    119.97684255	     86.04253489	    -53.72698658	    -19.58297081	     11.22489825	     42.29147376	     55.81015412
      0.10000000	      1.05320310	      1.75736707	      4.13360943	      0.70288292	      0.99034004	     -0.00082610	     15.52788056	      1.99630150	      2.18350709	     37.73905916	      0.65867084	     21.65262366	     -6.88702265	     -6.50810231	     38.71840743	      1.68653790	      4.85407897	     69.43348019	      1.21184284	      8.24807488	     -5.76336552	     -6.50810231	    -14.50878818	      0.25749630	     16.30660758	     43.42449573	    -11.03801421	     12.76865807	    119.01735501	     86.45703125	    -55.63723596	    -19.76837245	      8.67820964	     44.96407118	     56.18734562
      0.11666670	      0.52879179	      1.97959431	      3.76118089	      0.70607571	      0.99019139	     -0.00240842	     15.44388774	      1.64470599	      2.20216859	     36.78888590	      0.64208719	     21.21511583	     -6.01167646	     -6.53770756	     38.95757590	      1.83318766	      4.56943160	     68.07093267	      1.18806190	      7.09867448	     -3.85003850	     -6.53770756	    -14.05475479	      0.01862471	     16.31420257	     44.11879014	    -10.76615142	     12.57790803	    117.96357887	     86.64455800	    -57.25799485	    -20.30169234	      8.01550547	     47.54639750	     56.57878191
      0.13333330	      0.17036778	      2.18147935	      3.53888922	      0.70948350	      1.00055444	     -0.00139380	     14.67885589	      1.38451980	      2.78104807	     34.53624400	      0.60277117	     19.38720519	     -6.10710191	     -6.56725059	     38.08135035	      1.83626206	      4.19750546	     65.28631446	      1.13946114	      4.87313824	     -2.65857258	     -6.56725059	    -13.95243676	     -0.25467156	     16.31918829	     43.71123889	    -10.47114222	     12.43134170	    116.91390517	     86.81976917	    -57.69808832	    -20.98594561	      7.54393742	     49.97176347	     57.05817464
      0.15000000	     -0.58592315	      2.16200544	      3.31127393	      0.71644528	      0.99778470	     -0.00501444	     14.48979795	      1.24824160	      2.97906038	     33.02988639	      0.57648027	     18.78204039	     -5.75024868	     -6.58302154	     37.75709269	      1.85119354	      4.02957215	     62.81613050	      1.09634830	      3.90715557	     -1.69111854	     -6.58302154	    -13.01052527	     -0.14910057	     16.31527498	     42.71174781	    -10.31074782	     12.53730866	    115.96384137	     86.68558482	    -57.78362688	    -21.33908825	      7.22713739	     51.23549781	     57.24445842
      0.16666670	     -1.27276114	      2.17158271	      2.84825293	      0.71473962	      1.00857039	     -0.00762647	     14.00616250	      1.16363359	      3.33946194	     30.64676990	      0.53488704	     16.47114323	     -6.12975893	     -6.61174135	     36.80332484	      1.83080254	      3.79194168	     58.88295965	      1.02770152	      1.99617961	     -1.52118218	     -6.61174135	    -12.48441869	     -0.35881167	     16.05603304	     40.97502204	     -9.91485543	     12.02440693	    114.12888347	     86.72409466	    -57.60338075	    -21.73518417	      6.83245152	     55.03452828	     58.08825385
      0.18333330	     -1.89181223	      2.04427815	      2.35243246	      0.71775836	      1.01283507	     -0.01199424	     13.57041073	      1.09068519	      3.88447692	     28.55617273	      0.49839924	     14.59644594	     -5.97695490	     -6.63853872	     35.68285689	      1.70376928	      3.51686080	     54.69516129	      0.95461065	      0.52903665	     -1.61781399	     -6.63853872	    -12.38824805	     -0.03580517	     14.02334189	     40.16155920	     -8.44374104	     13.52384785	    111.47510020	     86.94629528	    -55.44707084	    -21.28051420	      8.75920043	     56.56487450	     59.36255969
      0.20000000	     -2.98346237	      1.76043746	      1.92763150	      0.72460415	      1.01237336	     -0.01271067	     13.50472188	      1.25980458	      4.25419931	     26.62463617	      0.46468756	     12.90341169	     -6.29862280	     -6.74256100	     34.74598180	      1.28227561	      3.09034614	     50.37917724	      0.87928252	     -0.55604992	     -2.03173007	     -6.74256100	    -12.22927909	      0.99912917	      9.35232558	     40.03451807	     -4.80905883	     17.88526835	    107.18526991	     87.15327769	    -50.80162256	    -21.67412096	     18.19696773	     54.04767713	     61.52071838
      0.21666670	     -3.75990135	      1.68129162	      1.40967527	      0.73063595	      1.02677020	     -0.01640046	     12.94685708	      1.20264589	      4.54729383	     24.19172662	      0.42222528	     10.54746564	     -7.05670216	     -6.80631540	     32.83500525	      1.04696438	      2.48747389	     45.34419393	      0.79140548	     -2.74642987	     -3.27626331	     -6.80631540	    -11.82819716	      2.23239591	      4.99683175	     38.58309739	     -1.77895836	     21.36933596	    102.56270319	     87.77825657	    -43.85248301	    -25.61507489	     29.61584107	     57.78952334	     63.00844304
      0.23333330	     -4.30054164	      1.29550896	      0.61750017	      0.73401170	      1.02968454	     -0.01988955	     13.02219911	      1.46750442	      4.72773108	     23.49985188	      0.41014979	      8.61255265	     -7.37321298	     -6.83695476	     30.91943027	      0.34340099	      1.55088426	     41.00636994	      0.71569617	     -4.27075609	     -4.41916846	     -6.83695476	    -10.70500444	      3.49729097	      3.19350157	     35.48685325	     -1.25135510	     22.35083343	     98.70903751	     87.25332510	    -35.53082968	    -31.66957568	     27.73436498	     70.77431061	     64.39352498
      0.25000000	     -4.39253836	      0.85224276	     -0.26798537	      0.73712714	      1.03697016	     -0.02497437	     13.48715436	      1.57957124	      4.38491497	     23.97916383	      0.41851536	      6.13083002	     -7.38051981	     -7.01891572	     28.70233940	     -0.25467648	      0.25506339	     37.48805335	      0.65428996	     -5.35598934	     -5.64451197	     -7.01891572	     -9.66336249	      3.24603593	      5.41846121	     29.36175806	     -3.78215588	     18.33293472	     98.20152767	     83.15852339	    -24.60875713	    -32.75423241	      6.54880611	     85.84752528	     81.65367612
      0.26666670	     -4.09836337	      0.14103991	     -1.17784616	      0.74179761	      1.03960133	     -0.02780015	     14.26484568	      1.87780273	      3.52562799	     25.82531765	      0.45073682	      4.13255241	     -7.46265872	     -7.08648130	     26.15740731	     -1.11426634	     -0.92229045	     34.38420272	      0.60011755	     -5.72918794	     -6.27547851	     -7.08648130	     -9.16722916	      3.06523288	      9.14943457	     21.68392272	     -5.96154089	     12.49783176	     97.62710681	     83.39532695	     -6.25001906	    -29.62120648	      0.35074751	     86.39002425	     80.09382201
